<?xml version="1.0" ?><svg height="32" id="svg4063" version="1.1" viewBox="0 0 32 32.000001" width="32" xmlns="http://www.w3.org/2000/svg" xmlns:cc="http://creativecommons.org/ns#" xmlns:dc="http://purl.org/dc/elements/1.1/" xmlns:inkscape="http://www.inkscape.org/namespaces/inkscape" xmlns:rdf="http://www.w3.org/1999/02/22-rdf-syntax-ns#" xmlns:sodipodi="http://sodipodi.sourceforge.net/DTD/sodipodi-0.dtd" xmlns:svg="http://www.w3.org/2000/svg"><defs id="defs4065"/><g id="layer1" transform="translate(0,-1020.3621)"><g id="g6947"><path d="m 15.68584,1023.3581 c -2.66215,-0.038 -5.34608,0.7044 -7.68554,2.2675 -5.34738,3.5731 -7.43576,10.4587 -4.97461,16.4004 2.46112,5.9416 8.80371,9.3309 15.11133,8.0762 6.30761,-1.2547 10.87108,-6.8148 10.87109,-13.2461 l -0.006,0 0,-1.5 -12,0 0,4 3,0 3,0 1.82031,0 c -0.929,3.4816 -3.75791,6.229 -7.4375,6.9609 -4.52537,0.9001 -9.0292,-1.5068 -10.79492,-5.7695 -1.76574,-4.2629 -0.28372,-9.1495 3.55273,-11.7129 3.83644,-2.5634 8.91709,-2.0614 12.17969,1.2012 l 2.73047,-2.7285 c -2.27376,-2.2738 -5.20216,-3.5867 -8.22852,-3.8848 -0.37829,-0.037 -0.75836,-0.059 -1.13867,-0.064 z" id="path4980" style="color:#000000;font-style:normal;font-variant:normal;font-weight:normal;font-stretch:normal;font-size:medium;line-height:normal;font-family:sans-serif;text-indent:0;text-align:start;text-decoration:none;text-decoration-line:none;text-decoration-style:solid;text-decoration-color:#000000;letter-spacing:normal;word-spacing:normal;text-transform:none;direction:ltr;block-progression:tb;writing-mode:lr-tb;baseline-shift:baseline;text-anchor:start;white-space:normal;clip-rule:nonzero;display:inline;overflow:visible;visibility:visible;opacity:1;isolation:auto;mix-blend-mode:normal;color-interpolation:sRGB;color-interpolation-filters:linearRGB;solid-color:#000000;solid-opacity:1;fill:#ea4335;fill-opacity:1;fill-rule:evenodd;stroke:none;stroke-width:1;stroke-linecap:round;stroke-linejoin:round;stroke-miterlimit:4;stroke-dasharray:none;stroke-dashoffset:0;stroke-opacity:1;color-rendering:auto;image-rendering:auto;shape-rendering:auto;text-rendering:auto;enable-background:accumulate"/><path d="m 6.3046,1039.7648 -3.20508,2.418 c 2.50808,5.842 8.78649,9.1633 15.03711,7.9199 2.88923,-0.5747 5.40463,-2.06 7.29101,-4.1113 l -3.02148,-2.416 c -1.32355,1.36 -3.04281,2.3486 -5.02149,2.7422 -4.52537,0.9001 -9.0292,-1.5069 -10.79492,-5.7696 -0.10718,-0.2587 -0.20172,-0.5205 -0.28515,-0.7832 z" id="path4982" style="color:#000000;font-style:normal;font-variant:normal;font-weight:normal;font-stretch:normal;font-size:medium;line-height:normal;font-family:sans-serif;text-indent:0;text-align:start;text-decoration:none;text-decoration-line:none;text-decoration-style:solid;text-decoration-color:#000000;letter-spacing:normal;word-spacing:normal;text-transform:none;direction:ltr;block-progression:tb;writing-mode:lr-tb;baseline-shift:baseline;text-anchor:start;white-space:normal;clip-rule:nonzero;display:inline;overflow:visible;visibility:visible;opacity:1;isolation:auto;mix-blend-mode:normal;color-interpolation:sRGB;color-interpolation-filters:linearRGB;solid-color:#000000;solid-opacity:1;fill:#34a853;fill-opacity:1;fill-rule:evenodd;stroke:none;stroke-width:1;stroke-linecap:round;stroke-linejoin:round;stroke-miterlimit:4;stroke-dasharray:none;stroke-dashoffset:0;stroke-opacity:1;color-rendering:auto;image-rendering:auto;shape-rendering:auto;text-rendering:auto;enable-background:accumulate"/><path d="m 4.49554,1029.0341 c -2.62397,3.703 -3.2871,8.6047 -1.46985,12.9919 0.0416,0.1004 0.12808,0.299 0.12808,0.299 1.35395,-0.7817 2.35395,-1.4684 3.30607,-2.1162 -0.043,-0.1144 -0.0872,-0.2349 -0.11606,-0.3219 -0.96598,-2.908 -0.48068,-6.0303 1.18359,-8.4673 -2.01965,-1.563 -2.01965,-1.563 -3.03183,-2.3855 z" id="path4984" style="color:#000000;font-style:normal;font-variant:normal;font-weight:normal;font-stretch:normal;font-size:medium;line-height:normal;font-family:sans-serif;text-indent:0;text-align:start;text-decoration:none;text-decoration-line:none;text-decoration-style:solid;text-decoration-color:#000000;letter-spacing:normal;word-spacing:normal;text-transform:none;direction:ltr;block-progression:tb;writing-mode:lr-tb;baseline-shift:baseline;text-anchor:start;white-space:normal;clip-rule:nonzero;display:inline;overflow:visible;visibility:visible;opacity:1;isolation:auto;mix-blend-mode:normal;color-interpolation:sRGB;color-interpolation-filters:linearRGB;solid-color:#000000;solid-opacity:1;fill:#fbbc05;fill-opacity:1;fill-rule:evenodd;stroke:none;stroke-width:1;stroke-linecap:round;stroke-linejoin:round;stroke-miterlimit:4;stroke-dasharray:none;stroke-dashoffset:0;stroke-opacity:1;color-rendering:auto;image-rendering:auto;shape-rendering:auto;text-rendering:auto;enable-background:accumulate"/><path d="m 17.00186,1035.3566 0,4 3,0 3,0 1.82031,0 c -0.42943,1.6094 -1.27827,3.0497 -2.41601,4.2188 l 3.02148,2.416 c 2.23187,-2.427 3.58007,-5.6494 3.58008,-9.1348 l -0.006,0 0,-1.5 -12,0 z" id="path4986" style="color:#000000;font-style:normal;font-variant:normal;font-weight:normal;font-stretch:normal;font-size:medium;line-height:normal;font-family:sans-serif;text-indent:0;text-align:start;text-decoration:none;text-decoration-line:none;text-decoration-style:solid;text-decoration-color:#000000;letter-spacing:normal;word-spacing:normal;text-transform:none;direction:ltr;block-progression:tb;writing-mode:lr-tb;baseline-shift:baseline;text-anchor:start;white-space:normal;clip-rule:nonzero;display:inline;overflow:visible;visibility:visible;opacity:1;isolation:auto;mix-blend-mode:normal;color-interpolation:sRGB;color-interpolation-filters:linearRGB;solid-color:#000000;solid-opacity:1;fill:#4788f4;fill-opacity:1;fill-rule:evenodd;stroke:none;stroke-width:1;stroke-linecap:round;stroke-linejoin:round;stroke-miterlimit:4;stroke-dasharray:none;stroke-dashoffset:0;stroke-opacity:1;color-rendering:auto;image-rendering:auto;shape-rendering:auto;text-rendering:auto;enable-background:accumulate"/><path d="m 15.68584,1023.3581 c -2.66215,-0.038 -5.34608,0.7044 -7.68554,2.2675 -5.34738,3.5731 -7.43576,10.4587 -4.97461,16.4004 2.46112,5.9416 8.80371,9.3309 15.11133,8.0762 6.30761,-1.2547 10.87108,-6.8148 10.87109,-13.2461 l -0.006,0 0,-1.5 -12,0 0,4 3,0 3,0 1.82031,0 c -0.929,3.4816 -3.75791,6.229 -7.4375,6.9609 -4.52537,0.9001 -9.0292,-1.5068 -10.79492,-5.7695 -1.76574,-4.2629 -0.28372,-9.1495 3.55273,-11.7129 3.83644,-2.5634 8.91709,-2.0614 12.17969,1.2012 l 2.73047,-2.7285 c -2.27376,-2.2738 -5.20216,-3.5867 -8.22852,-3.8848 -0.37829,-0.037 -0.75836,-0.059 -1.13867,-0.064 z" id="path4998" style="color:#000000;font-style:normal;font-variant:normal;font-weight:normal;font-stretch:normal;font-size:medium;line-height:normal;font-family:sans-serif;text-indent:0;text-align:start;text-decoration:none;text-decoration-line:none;text-decoration-style:solid;text-decoration-color:#000000;letter-spacing:normal;word-spacing:normal;text-transform:none;direction:ltr;block-progression:tb;writing-mode:lr-tb;baseline-shift:baseline;text-anchor:start;white-space:normal;clip-rule:nonzero;display:inline;overflow:visible;visibility:visible;opacity:1;isolation:auto;mix-blend-mode:normal;color-interpolation:sRGB;color-interpolation-filters:linearRGB;solid-color:#000000;solid-opacity:1;fill:none;fill-opacity:1;fill-rule:evenodd;stroke:none;stroke-width:1;stroke-linecap:round;stroke-linejoin:round;stroke-miterlimit:4;stroke-dasharray:none;stroke-dashoffset:0;stroke-opacity:1;color-rendering:auto;image-rendering:auto;shape-rendering:auto;text-rendering:auto;enable-background:accumulate"/><path d="m 4.49698,1028.934 3.02999,2.4675 m 14.88453,12.1212 2.98975,2.4347" id="path5000" style="opacity:1;fill:none;fill-rule:evenodd;stroke:none;stroke-width:1px;stroke-linecap:butt;stroke-linejoin:miter;stroke-opacity:1"/><path d="m 6.3845,1039.9249 -3.34546,2.5053" id="path5002" style="opacity:1;fill:none;fill-rule:evenodd;stroke:none;stroke-width:1px;stroke-linecap:butt;stroke-linejoin:miter;stroke-opacity:1"/></g></g></svg>